<?xml version="1.0" encoding="UTF-8" standalone="no"?>
<!-- Created with Inkscape (http://www.inkscape.org/) -->

<svg
   xmlns:dc="http://purl.org/dc/elements/1.1/"
   xmlns:cc="http://creativecommons.org/ns#"
   xmlns:rdf="http://www.w3.org/1999/02/22-rdf-syntax-ns#"
   xmlns:svg="http://www.w3.org/2000/svg"
   xmlns="http://www.w3.org/2000/svg"
   xmlns:sodipodi="http://sodipodi.sourceforge.net/DTD/sodipodi-0.dtd"
   xmlns:inkscape="http://www.inkscape.org/namespaces/inkscape"
   width="351.43262"
   height="365.03198"
   id="svg2"
   version="1.1"
   inkscape:version="0.47 r22583"
   sodipodi:docname="Novo documento 1">
  <defs
     id="defs4">
    <inkscape:perspective
       sodipodi:type="inkscape:persp3d"
       inkscape:vp_x="0 : 526.18109 : 1"
       inkscape:vp_y="0 : 1000 : 0"
       inkscape:vp_z="744.09448 : 526.18109 : 1"
       inkscape:persp3d-origin="372.04724 : 350.78739 : 1"
       id="perspective10" />
    <inkscape:perspective
       id="perspective2824"
       inkscape:persp3d-origin="0.5 : 0.33333333 : 1"
       inkscape:vp_z="1 : 0.5 : 1"
       inkscape:vp_y="0 : 1000 : 0"
       inkscape:vp_x="0 : 0.5 : 1"
       sodipodi:type="inkscape:persp3d" />
  </defs>
  <sodipodi:namedview
     id="base"
     pagecolor="#ffffff"
     bordercolor="#666666"
     borderopacity="1.0"
     inkscape:pageopacity="0.0"
     inkscape:pageshadow="2"
     inkscape:zoom="0.49497475"
     inkscape:cx="275.76063"
     inkscape:cy="-81.314165"
     inkscape:document-units="px"
     inkscape:current-layer="layer1"
     showgrid="false"
     inkscape:window-width="1600"
     inkscape:window-height="838"
     inkscape:window-x="-8"
     inkscape:window-y="-8"
     inkscape:window-maximized="1" />
  <metadata
     id="metadata7">
    <rdf:RDF>
      <cc:Work
         rdf:about="">
        <dc:format>image/svg+xml</dc:format>
        <dc:type
           rdf:resource="http://purl.org/dc/dcmitype/StillImage" />
        <dc:title></dc:title>
      </cc:Work>
    </rdf:RDF>
  </metadata>
  <g
     inkscape:label="Camada 1"
     inkscape:groupmode="layer"
     id="layer1"
     transform="translate(-176.22364,-362.84302)">
    <path
       style="fill:#000000;fill-opacity:1;stroke:#000000;stroke-width:1px;stroke-linecap:butt;stroke-linejoin:miter;stroke-opacity:1"
       d="m 348.90625,363.34375 c -4.19199,0.0449 -8.40989,1.71024 -12.125,3.65625 l -7.5,3.9375 c -2.88032,1.50874 -6.1078,2.33582 -8.9375,3.9375 -5.20287,2.94496 -11.66262,8.24841 -14.625,10.34375 -2.96238,2.09534 -3.67294,3.4167 -8.21875,7.15625 -4.5458,3.73956 -15.48816,7.79313 -19.28125,15 l -3.5625,6.78125 c -0.90259,1.71493 -1.12155,3.781 -1.09375,5.71875 0.0402,2.80176 1.78125,8.1875 1.78125,8.1875 3.16751,14.5706 13.27944,27.34493 15,42.15625 0.12439,1.07082 -0.34375,3.21875 -0.34375,3.21875 -0.44485,4.00368 -4.37244,6.77123 -6.78125,10 C 282.207,484.79366 280,487.375 280,487.375 c -1.33371,1.63008 -2.69468,-3.54556 -4.65625,-4.3125 -1.21962,-0.47685 -3.90625,0 -3.90625,0 -1.88231,0 -1.95947,4.38466 -3.21875,4.65625 -1.25928,0.27159 -1.08829,-1.1033 -1.78125,-1.0625 L 260.34375,487 c -1.93461,0.1138 -2.42987,3.36475 -4.28125,3.9375 -1.60838,0.49757 -5,-0.71875 -5,-0.71875 -1.71594,-0.24514 -3.61091,0.4007 -5,1.4375 -1.24391,0.92843 -2.5,3.90625 -2.5,3.90625 -0.6518,1.02425 -2.36158,-0.86557 -3.5625,-0.6875 -3.74062,0.55465 -10,5.34375 -10,5.34375 -1.78703,0.95734 -3.69396,2.15313 -4.65625,3.9375 -1.8784,3.48311 -1.40625,11.78125 -1.40625,11.78125 -0.66144,5.45692 -4.15668,10.28697 -5,15.71875 -0.94973,6.11719 1.10453,12.47136 0,18.5625 -0.36297,2.00165 -2.15625,5.71875 -2.15625,5.71875 -3.50991,4.27982 -3.47519,6.76086 -3.21875,12.5 l -9.625,21.0625 c -10.10593,22.08332 -18.55315,44.36571 -22.5,68.5625 -1.2692,7.78105 -4.02974,15.35232 -4.65625,23.21875 -0.24592,3.08775 0.375,9.28125 0.375,9.28125 0.20406,5.30539 6.06734,9.19661 10.6875,11.8125 3.69764,2.09357 12.5,2.5 12.5,2.5 4.26046,0.85209 8.77574,-0.71624 12.875,-2.15625 3.21829,-1.13053 8.9375,-5 8.9375,-5 1.14257,-0.63984 2.6124,0.20197 3.90625,0 12.34987,-1.92783 35.71875,-11.4375 35.71875,-11.4375 3.2488,-1.03962 2.45958,-6.6299 5,-8.90625 8.85948,-7.93854 32.875,-13.9375 32.875,-13.9375 l 0,2.125 c 0,10.54361 2.41217,20.95683 3.5625,31.4375 1.11018,10.11487 3.21875,30.375 3.21875,30.375 l 220.71875,0 0,-192.875 -9.65625,-2.125 c -7.8407,-1.74238 -15.78071,-3.01099 -23.5625,-5 -6.02091,-1.53893 -17.875,-5.375 -17.875,-5.375 -3.83137,-1.14941 -6.71143,-4.38425 -9.625,-7.125 -2.83111,-2.66318 -7.5,-8.9375 -7.5,-8.9375 -2.06882,-2.46288 -3.58656,-5.4851 -6.09375,-7.5 -1.24498,-1.00052 -4.28125,-2.15625 -4.28125,-2.15625 -3.74044,-1.87023 -8.80317,3.04877 -12.5,1.09375 -1.93191,-1.02167 -3.21875,-5.71875 -3.21875,-5.71875 -4.00382,-7.11789 -8.65105,-13.89093 -12.5,-21.09375 -2.8609,-5.35381 -7.84375,-16.40625 -7.84375,-16.40625 -2.71257,-5.67174 -4.64865,-11.74996 -6.0625,-17.875 -2.37102,-10.27168 -4.04671,-21.46935 -8.9375,-30 -1.82721,-3.18706 9.28125,-7.5 9.28125,-7.5 0.79668,-0.64347 1.48035,-1.52112 1.78125,-2.5 1.46953,-4.78065 -0.34375,-15 -0.34375,-15 -0.0216,-0.90638 -1.59943,-1.16726 -2.5,-1.0625 -3.38204,0.39343 -8.21875,6.0625 -8.21875,6.0625 -2.86887,2.12047 -6.10173,4.35263 -9.65625,4.65625 -0.86354,0.0738 -2.5,-0.71875 -2.5,-0.71875 -9.65942,-2.75985 -15.1461,-13.20123 -22.84375,-19.65625 -1.29647,-1.08718 -3.9375,-3.1875 -3.9375,-3.1875 -2.26629,-1.85424 -4.9321,-3.62675 -7.84375,-3.9375 -0.59575,-0.0636 -1.21364,-0.10017 -1.8125,-0.0937 z M 305.6875,482.3125 c 1.70303,-0.0736 4.42897,2.88255 4.6875,4.71875 1.08236,7.68714 -0.72592,16.30698 0.34375,24.09375 0.49176,3.57982 6.0553,4.43496 9.375,3.1875 2.61841,-1.0651 1.86985,3.54456 3.34375,4.9375 1.53942,1.45486 1.8087,4.44272 3.5625,5.25 1.85612,0.85437 4.99343,0.24629 5.03125,3.15625 0.0378,2.9107 4.20356,3.50487 6.59375,3.96875 2.54081,0.49311 4.83003,1.05002 4.28125,4.03125 -0.47841,2.59895 1.90535,4.53721 3.90625,5.15625 3.12967,0.96826 6.63748,0.83663 9.96875,1.1875 -1.87967,2.89593 -5.6184,3.55089 -8.5625,5.03125 -10.42015,5.23951 -24.33107,10.56378 -31.71875,14.875 -7.38767,4.31122 -7.5025,8.60237 -11.6875,11.71875 -4.185,3.11638 -11.26075,3.22902 -14.5,6.5625 -3.23925,3.33348 -4.17671,7.14184 -7.84375,9.15625 -4.80611,2.64014 -11.03804,2.06872 -16.21875,3.8125 -2.50961,0.84472 -4.63031,2.05007 -6.34375,4.3125 -4.36817,5.76775 -6.28739,13.4686 -10.96875,18.65625 -3.52396,3.90508 -8.32172,6.85145 -12.6875,10 -4.79496,3.45807 -3.19444,-1.95591 -3.28125,-4.90625 -0.14847,-5.04597 2.2807,-9.76068 3.53125,-14.59375 2.47733,-9.57427 6.68749,-18.5906 10.21875,-27.8125 2.16962,-4.70658 5.51831,-9.28942 6.84375,-13.9375 0.69576,-2.43993 1.08492,-4.06416 2.8125,-5.84375 2.11854,-2.18231 5.55782,-2.42434 7.40625,-4.5 2.63671,-2.96085 4.33273,-6.69109 5.6875,-10.5625 1.18602,-3.38919 3.60528,-6.30569 6.59375,-8.5 2.23738,-1.64281 3.03032,-4.14381 3.09375,-6.90625 0.1034,-4.50298 0.75882,-9.17505 3.125,-13.1875 1.17281,-1.98879 2.90648,-3.68025 3.78125,-5.6875 1.03782,-2.38138 -1.03275,-5.86714 1.15625,-8.125 2.73782,-2.82395 2.60173,-7.93703 5.4375,-10.28125 3.90074,-3.22458 8.85177,-7.67778 12.6875,-8.90625 0.10347,-0.0331 0.23021,-0.0576 0.34375,-0.0625 z"
       id="path2830" />
  </g>
</svg>
